<?xml version="1.0" encoding="utf-8"?>
<!-- Generator: Adobe Illustrator 16.0.3, SVG Export Plug-In . SVG Version: 6.00 Build 0)  -->
<!DOCTYPE svg PUBLIC "-//W3C//DTD SVG 1.1//EN" "http://www.w3.org/Graphics/SVG/1.1/DTD/svg11.dtd">
<svg version="1.1" id="Capa_1" xmlns="http://www.w3.org/2000/svg" xmlns:xlink="http://www.w3.org/1999/xlink" x="0px" y="0px"
	 width="1920px" height="1243.333px" viewBox="0 0 1920 1243.333" enable-background="new 0 0 1920 1243.333" xml:space="preserve">
<path fill-rule="evenodd" clip-rule="evenodd" fill="#F9B233" d="M881.671,646.442c59.879,0,115.081-0.627,170.245,0.744
	c7.359,0.186,17.906,8.699,21.241,16.392c35.105,81.004,68.862,162.72,103.516,243.966c4.918,11.54,12.621,21.635,19.898,33.848
	c42.602-70.55,82.49-137.479,123.204-203.791c47.195-76.87,95.021-153.27,142.752-229.741
	c44.939-72.005,90.123-143.831,135.174-215.753c23.362-37.293,45.981-75.198,70.498-111.54c5.931-8.797,17.966-17.561,27.332-17.747
	c72.952-1.452,145.936-0.803,224.469-0.803c-7.065,13.297-11.666,23.316-17.377,32.477
	c-70.959,113.791-142.044,227.481-213.175,341.144c-45.571,72.825-91.308,145.526-136.892,218.35
	c-70.583,112.783-141.001,225.694-211.752,338.353c-9.937,15.82-20.093,31.99-32.622,45.109
	c-6.687,6.994-18.621,10.742-28.265,10.926c-54.256,1.008-108.555-0.389-162.797,0.979c-17.886,0.445-25.741-6.846-32.748-24.299
	c-30.979-77.121-62.806-153.85-95.587-230.058c-30.908-71.861-63.481-142.84-95.084-214.34
	C889.47,671.074,886.642,660.733,881.671,646.442z"/>
<path fill-rule="evenodd" clip-rule="evenodd" fill="none" d="M765.458,928.723c-30.619-42.521-59.719-82.933-89.332-124.054
	c-40.143,37.096-70.688,65.324-103.988,96.093c25.787,29.379,49.781,56.711,78.25,89.143
	c-111.466,21.477-211.148,15.568-299.212-59.211c-71.405-60.631-109.491-142.291-120.783-239.39
	c-10.121-87.056-11.741-174.475,13.42-258.753c50.839-170.29,176.171-254.878,340.414-241.026
	c97.099,8.189,176.863,49.685,234.751,142.546c62.582,100.389,66.458,210.431,60.867,323.852
	c-1.592,32.301-8.929,64.417-15.148,96.261C851.589,821.295,812.47,871.045,765.458,928.723z"/>
<path fill-rule="evenodd" clip-rule="evenodd" fill="#FFFFFF" d="M857.777,1033.008c32.72,27.818,63.759,54.205,98.948,84.123
	c-41.479,38.537-71.925,66.824-112.037,104.086c-34.148-42.473-67.034-84.969-101.908-125.408
	c-6.945-8.049-22.209-13.08-32.433-11.279c-128.231,22.592-255.482,21.348-380.742-18.93
	c-68.923-22.168-131.679-57.078-185.585-111.602C32.558,841.262,3.141,698.724,13.795,540.779
	c2.038-30.215,6.019-60.819,13.338-89.971c36.671-146.024,119.706-248.171,248.588-302.791c184.692-78.273,371.159-76.028,555.547-1
	c78.793,32.061,144.41,87.375,191.396,167.348c93.949,159.896,91.654,329.233,34.125,498.531
	c-30.223,88.942-91.932,157.064-171.652,201.166C878.088,1017.963,871.705,1023.293,857.777,1033.008z M765.458,928.723
	c47.012-57.678,86.131-107.428,99.239-174.539c6.22-31.844,13.557-63.959,15.148-96.261c5.591-113.421,1.714-223.462-60.867-323.852
	c-57.888-92.861-137.652-134.356-234.751-142.546c-164.243-13.852-289.575,70.736-340.414,241.026
	c-25.161,84.278-23.541,171.697-13.42,258.753c11.292,97.099,49.378,178.758,120.783,239.39
	c88.064,74.779,187.747,80.688,299.212,59.211c-28.469-32.432-52.463-59.764-78.25-89.143c33.3-30.769,63.845-58.997,103.988-96.093
	C705.739,845.79,734.839,886.201,765.458,928.723z"/>
</svg>
